<?xml version="1.0" encoding="UTF-8"?>
<svg id="Capa_1" xmlns="http://www.w3.org/2000/svg" version="1.1" viewBox="0 0 198.4 198.5">
  <!-- Generator: Adobe Illustrator 30.9.0, SVG Export Plug-In . SVG Version: 2.1.4 Build 52)  -->
  <defs>
    <style>
      .st0 {
        fill: #f07e23;
      }
    </style>
  </defs>
  <path class="st0" d="M179.3,157c.2,0,.3.1.3.3,0,0,0,.2,0,.2-12,16.6-27.6,28.4-46.7,35.1-55.7,19.7-115-12.2-129.7-69.1C-9.9,73.6,19,21,67.8,5.2,86.5-.9,105-1.6,123.3,2.9c33.7,8.4,60.1,33.3,70.7,66.4,5.2,16.2,5.7,33.4,2.5,50.2,0,.5-.5.9-1,.9h-69.8c-.6,0-1-.5-1.1-1,0-.2,0-.3.1-.5,3.1-6.2,4.9-11.4,5.4-15.7,0-.4.4-.8.8-.8h54.4c.3,0,.6-.3.6-.6,1.9-51.6-42.6-93.5-94-89-15.1,1.3-28.9,6.3-41.2,14.8-20.4,14.1-32.8,33.9-37.2,59.4-.4,2.3-.6,7.2-.5,14.6,0,.4.4.8.8.8h55.3c.2,0,.4.2.4.5,0,0,0,.1,0,.1-1.1,2.9-.8,4.8.6,7.9,4.4,9.4,13,27.7,25.7,55.1.3.7,1.2,1.5,2.5,2.5,3.3,2.5,7.2.5,9-2.9.2-.3,1.2-3,3.1-8,.2-.4.6-.7,1.1-.7h67.8Z"/>
  <path class="st0" d="M75.8,106.6l15.1,5.7c.3.1.7,0,.8-.4,0-.1,0-.2,0-.3-.6-3-3.7-19.9-9.5-50.9-1.5-8.3,2.6-16.7,10.8-19.2,9.6-2.9,19.4,1.9,21.7,11.8.5,2.2.4,5.8-.5,10.8-3.9,24.2-6.5,40.1-7.8,47.7,0,.2,0,.4.3.4,0,0,.1,0,.2,0l15.8-7.3c.2-.1.5,0,.6.2,0,.1,0,.3,0,.4l-21.4,56.2c-.1.4-.5.5-.9.4-.2,0-.3-.2-.4-.3l-25.4-54.7c0-.2,0-.4.2-.5,0,0,.2,0,.3,0Z"/>
  <path class="st0" d="M193.3,130.7l-5.9,15.5c0,.2-.3.4-.6.4h-71.5c-.3,0-.6-.3-.6-.6,0,0,0-.1,0-.2l5.9-15.5c0-.2.3-.4.6-.4h71.5c.3,0,.6.3.6.6,0,0,0,.1,0,.2Z"/>
</svg>